<?xml version="1.0" standalone="no"?><!DOCTYPE svg PUBLIC "-//W3C//DTD SVG 1.1//EN" "http://www.w3.org/Graphics/SVG/1.1/DTD/svg11.dtd"><svg t="1529636801356" class="icon" style="" viewBox="0 0 1024 1024" version="1.1" xmlns="http://www.w3.org/2000/svg" p-id="800" xmlns:xlink="http://www.w3.org/1999/xlink" width="32" height="32"><defs><style type="text/css"></style></defs><path d="M232.338557 312.617989a7.864753 7.864753 0 0 1 7.864753 7.864754v57.650658a7.864753 7.864753 0 1 1-15.728965 0V320.482743A7.864212 7.864212 0 0 1 232.338557 312.617989zM142.250396 414.74113a7.863128 7.863128 0 0 1-11.120424 11.119882l-40.76441-40.76116a7.863128 7.863128 0 0 1 11.120965-11.119882m40.758451 218.374231l0.004334 0.005418a8.756554 8.756554 0 0 1 0 12.385524l-39.497143 39.491725a8.752762 8.752762 0 0 1-12.387149 0l-0.004334-0.005418a8.756554 8.756554 0 0 1 0-12.385524l39.497143-39.491725a8.752762 8.752762 0 0 1 12.387149 0z m180.607052-177.579479a7.864212 7.864212 0 1 0 11.120423 11.12259l40.76441-40.772537a7.864212 7.864212 0 0 0-11.120965-11.123133M44.164199 497.726849H101.901545a7.86367 7.86367 0 0 1 7.86367 7.86367 7.86367 7.86367 0 0 1-7.86367 7.863669H44.164199A7.864212 7.864212 0 0 1 36.300529 505.592686a7.86367 7.86367 0 0 1 7.86367-7.865837z" fill="#F7CA19" p-id="801"></path><path d="M230.806349 394.971429c59.246798 0 107.27619 48.029393 107.276191 107.27619s-48.029393 107.27619-107.276191 107.276191-107.27619-48.030476-107.27619-107.276191 48.029393-107.27619 107.27619-107.27619z m-0.97903 16.052419a89.462383 89.462383 0 1 1-89.461842 89.461841 89.462383 89.462383 0 0 1 89.461842-89.461841z" fill="#7D7D7D" p-id="802"></path><path d="M956.816931 521.752381c-0.438857-145.568914-119.00072-263.859877-264.668783-263.859877S427.920931 376.183467 427.479365 521.752381h-30.875496C397.192804 359.131429 529.662646 227.013757 692.419048 227.013757s295.226243 132.117672 295.816804 294.738624H956.816931z" fill="#FF6161" p-id="803"></path><path d="M929.163513 521.481481c-11.908741-131.702112-101.338074-234.331835-237.015365-234.331834-145.668063 0-239.393321 118.291505-239.741697 263.859877h-30.88254C422.001778 388.388571 529.662646 256.270899 692.419048 256.270899c152.781884 0 255.826624 116.422298 268.271746 265.210582h-31.527281z" fill="#FF9348" p-id="804"></path><path d="M900.746159 521.210582c-10.554243-89.021901-66.820063-203.178396-207.785312-203.178396-134.685799 0-208.82665 118.270375-225.349893 241.727391l-32.453756 0.660994C449.615644 424.292504 535.987065 287.153439 693.231746 287.153439c156.942899 0 226.233566 132.027192 236.32728 234.057143h-28.812867z" fill="#FFF65C" p-id="805"></path><path d="M876.636106 521.481481c-13.620825-82.526273-65.145905-172.566756-184.26582-172.566755-108.636106 0-173.493774 95.025033-196.480678 203.633507l-30.063339 0.173375C488.693435 430.430544 564.521989 318.035979 692.614095 318.035979c133.813503 0 196.412952 107.408931 210.27217 203.445502h-26.250159z" fill="#89FF89" p-id="806"></path><path d="M718.598772 749.199577c-22.219175 26.710688-54.960085 47.786667-93.595767 47.786666H238.764834c-15.208296-0.94273-30.644148-7.00546-44.810023-16.27564a121.274108 121.274108 0 0 1-57.981156-129.88546 49.092402 49.092402 0 0 1 2.779429-10.760127 121.358629 121.358629 0 0 1 115.96502-85.457947h0.1024c-0.060681-1.744593-0.1024-3.489185-0.1024-5.244614 0-81.869071 66.444055-148.23619 148.406857-148.23619 74.034658 0 131.768753 45.348571 147.987505 117.417041 18.822095-9.131479 38.543577-12.999924 60.876529-12.999924 78.831746 0 142.736931 70.125037 142.736931 148.870095a141.930193 141.930193 0 0 1-36.127154 94.7861z" fill="#A2D9F3" p-id="807"></path><path d="M709.702434 589.937778c-2.676487-35.70455-46.32381-69.043606-92.680127-66.854739-15.14328 0.783983-12.661841 3.161939-12.661841 3.161939s79.812402 6.447407 99.712677 83.788123c2.161778 8.620021 7.05964-1.083598 5.629291-20.095323z" fill="#C9ECFD" p-id="808"></path></svg>